<svg width="430" height="135" viewBox="0 0 430 135" fill="none" xmlns="http://www.w3.org/2000/svg">
<path d="M128.791 92.5859C122.879 92.5859 118.491 91.0625 115.627 88.0156C112.762 84.9427 111.33 80.2943 111.33 74.0703C111.33 67.7943 112.775 63.0677 115.666 59.8906C118.557 56.7135 123.062 55.125 129.182 55.125C130.926 55.125 132.684 55.3203 134.455 55.7109C136.252 56.0755 137.736 56.6224 138.908 57.3516C140.106 58.0547 140.705 58.9141 140.705 59.9297C140.705 60.3464 140.471 60.9974 140.002 61.8828C139.559 62.7682 139.038 63.5625 138.439 64.2656C137.866 64.9427 137.385 65.2812 136.994 65.2812C136.812 65.2812 136.408 65.099 135.783 64.7344C134.793 64.2656 133.856 63.901 132.971 63.6406C132.085 63.3542 131.004 63.2109 129.728 63.2109C126.994 63.2109 125.002 64.0833 123.752 65.8281C122.502 67.5469 121.877 70.2031 121.877 73.7969C121.877 77.4167 122.463 80.099 123.635 81.8438C124.833 83.5625 126.734 84.4219 129.338 84.4219C130.77 84.4219 132.02 84.2786 133.088 83.9922C134.155 83.6797 135.171 83.2891 136.135 82.8203C136.317 82.7422 136.538 82.651 136.799 82.5469C137.059 82.4427 137.254 82.3906 137.385 82.3906C137.853 82.3906 138.361 82.7292 138.908 83.4062C139.481 84.0573 139.963 84.8125 140.353 85.6719C140.77 86.5312 140.978 87.1953 140.978 87.6641C140.978 88.862 140.197 89.8255 138.635 90.5547C137.072 91.2839 135.327 91.8047 133.4 92.1172C131.473 92.4297 129.937 92.5859 128.791 92.5859ZM155.275 92.5859C151.734 92.5859 149.129 91.6615 147.463 89.8125C145.822 87.9375 145.002 85.4635 145.002 82.3906C145.002 80.0729 145.484 77.9896 146.447 76.1406C147.411 74.2656 149.364 72.6901 152.307 71.4141C155.249 70.138 159.455 69.5 164.924 69.5V67.1953C164.924 65.8411 164.494 64.8385 163.635 64.1875C162.775 63.5365 161.408 63.2109 159.533 63.2109C157.971 63.2109 156.629 63.3802 155.51 63.7188C154.39 64.0312 153.179 64.4609 151.877 65.0078C151.2 65.3203 150.783 65.4766 150.627 65.4766C150.158 65.4766 149.637 65.125 149.064 64.4219C148.517 63.7188 148.036 62.9115 147.619 62C147.202 61.0885 146.994 60.3984 146.994 59.9297C146.994 59.1224 147.567 58.3542 148.713 57.625C149.885 56.8698 151.486 56.2708 153.517 55.8281C155.549 55.3594 157.801 55.125 160.275 55.125C165.484 55.125 169.273 56.1667 171.642 58.25C174.012 60.3073 175.197 63.1328 175.197 66.7266V79.7344C175.197 81.8958 175.249 83.5755 175.353 84.7734C175.484 85.9714 175.653 87.1562 175.861 88.3281C175.991 89.0312 176.057 89.526 176.057 89.8125C176.057 90.3333 175.562 90.763 174.572 91.1016C173.609 91.4401 172.502 91.6875 171.252 91.8438C170.002 92 168.999 92.0781 168.244 92.0781C167.437 92.0781 166.851 91.7396 166.486 91.0625C166.148 90.3594 165.874 89.4089 165.666 88.2109C165.64 88.0547 165.614 87.8984 165.588 87.7422C165.562 87.5859 165.523 87.4297 165.471 87.2734C165.21 87.7682 164.65 88.4323 163.791 89.2656C162.958 90.099 161.812 90.8672 160.353 91.5703C158.895 92.2474 157.202 92.5859 155.275 92.5859ZM158.674 84.4219C159.976 84.4219 161.2 84.0182 162.346 83.2109C163.491 82.3776 164.351 81.3229 164.924 80.0469V76.2188C158.439 76.2188 155.197 77.9245 155.197 81.3359C155.197 82.2474 155.497 82.9896 156.096 83.5625C156.721 84.1354 157.58 84.4219 158.674 84.4219ZM193.635 92.5859C191.838 92.5859 190.054 92.3906 188.283 92C186.512 91.6094 185.041 91.0495 183.869 90.3203C182.723 89.5911 182.15 88.7578 182.15 87.8203C182.15 87.2474 182.359 86.5312 182.775 85.6719C183.192 84.8125 183.687 84.0703 184.26 83.4453C184.859 82.7943 185.379 82.4688 185.822 82.4688C186.057 82.4688 186.564 82.651 187.346 83.0156C188.257 83.4323 189.129 83.7708 189.963 84.0312C190.796 84.2917 191.747 84.4219 192.814 84.4219C194.142 84.4219 195.145 84.1745 195.822 83.6797C196.499 83.1849 196.838 82.4557 196.838 81.4922C196.838 80.763 196.629 80.1641 196.213 79.6953C195.822 79.2005 195.314 78.7969 194.689 78.4844C194.064 78.1719 193.179 77.7943 192.033 77.3516L190.9 76.9219C189.416 76.349 188.114 75.6979 186.994 74.9688C185.874 74.2396 184.924 73.1849 184.142 71.8047C183.361 70.3984 182.971 68.6276 182.971 66.4922C182.971 64.1224 183.478 62.0911 184.494 60.3984C185.536 58.6797 187.007 57.3776 188.908 56.4922C190.809 55.5807 193.049 55.125 195.627 55.125C197.111 55.125 198.661 55.2682 200.275 55.5547C201.89 55.8411 203.244 56.2839 204.338 56.8828C205.458 57.4818 206.017 58.237 206.017 59.1484C206.017 59.6693 205.848 60.3724 205.51 61.2578C205.197 62.1432 204.807 62.9245 204.338 63.6016C203.869 64.2786 203.426 64.6172 203.01 64.6172C202.879 64.6172 202.515 64.5 201.916 64.2656C201.109 63.9271 200.327 63.6667 199.572 63.4844C198.843 63.276 197.997 63.1719 197.033 63.1719C194.585 63.1719 193.361 63.9792 193.361 65.5938C193.361 66.3229 193.583 66.9479 194.025 67.4688C194.494 67.9896 195.067 68.4193 195.744 68.7578C196.421 69.0964 197.372 69.5 198.596 69.9688C200.002 70.5417 200.874 70.9062 201.213 71.0625C203.036 71.974 204.494 73.1849 205.588 74.6953C206.708 76.1797 207.267 78.1719 207.267 80.6719C207.267 83.0417 206.734 85.125 205.666 86.9219C204.598 88.7188 203.036 90.112 200.978 91.1016C198.921 92.0911 196.473 92.5859 193.635 92.5859ZM224.142 92.5859C220.835 92.5859 218.309 91.6615 216.564 89.8125C214.846 87.9375 213.986 85.099 213.986 81.2969V63.7969H212.892C212.163 63.7969 211.629 63.5234 211.291 62.9766C210.978 62.4297 210.822 61.5443 210.822 60.3203V59.1484C210.822 57.9245 210.978 57.0391 211.291 56.4922C211.629 55.9453 212.163 55.6719 212.892 55.6719H213.986L214.885 49.0703C215.093 47.612 216.343 46.8828 218.635 46.8828H220.822C222.02 46.8828 222.892 47.0651 223.439 47.4297C224.012 47.7943 224.299 48.3411 224.299 49.0703V55.6719H227.697C228.426 55.6719 228.947 55.9453 229.26 56.4922C229.598 57.0391 229.767 57.9245 229.767 59.1484V60.3203C229.767 61.5443 229.598 62.4297 229.26 62.9766C228.947 63.5234 228.426 63.7969 227.697 63.7969H224.299V81.4141C224.299 82.4818 224.481 83.25 224.846 83.7188C225.236 84.1875 225.874 84.4219 226.76 84.4219C227.02 84.4219 227.372 84.3828 227.814 84.3047C228.257 84.2005 228.53 84.1484 228.635 84.1484C229.051 84.1484 229.416 84.5 229.728 85.2031C230.067 85.8802 230.327 86.6354 230.51 87.4688C230.718 88.3021 230.822 88.862 230.822 89.1484C230.822 91.4401 228.596 92.5859 224.142 92.5859ZM245.666 92.5859C242.124 92.5859 239.52 91.6615 237.853 89.8125C236.213 87.9375 235.392 85.4635 235.392 82.3906C235.392 80.0729 235.874 77.9896 236.838 76.1406C237.801 74.2656 239.754 72.6901 242.697 71.4141C245.64 70.138 249.846 69.5 255.314 69.5V67.1953C255.314 65.8411 254.885 64.8385 254.025 64.1875C253.166 63.5365 251.799 63.2109 249.924 63.2109C248.361 63.2109 247.02 63.3802 245.9 63.7188C244.78 64.0312 243.57 64.4609 242.267 65.0078C241.59 65.3203 241.174 65.4766 241.017 65.4766C240.549 65.4766 240.028 65.125 239.455 64.4219C238.908 63.7188 238.426 62.9115 238.01 62C237.593 61.0885 237.385 60.3984 237.385 59.9297C237.385 59.1224 237.958 58.3542 239.103 57.625C240.275 56.8698 241.877 56.2708 243.908 55.8281C245.939 55.3594 248.192 55.125 250.666 55.125C255.874 55.125 259.663 56.1667 262.033 58.25C264.403 60.3073 265.588 63.1328 265.588 66.7266V79.7344C265.588 81.8958 265.64 83.5755 265.744 84.7734C265.874 85.9714 266.043 87.1562 266.252 88.3281C266.382 89.0312 266.447 89.526 266.447 89.8125C266.447 90.3333 265.952 90.763 264.963 91.1016C263.999 91.4401 262.892 91.6875 261.642 91.8438C260.392 92 259.39 92.0781 258.635 92.0781C257.827 92.0781 257.241 91.7396 256.877 91.0625C256.538 90.3594 256.265 89.4089 256.057 88.2109C256.03 88.0547 256.004 87.8984 255.978 87.7422C255.952 87.5859 255.913 87.4297 255.861 87.2734C255.601 87.7682 255.041 88.4323 254.182 89.2656C253.348 90.099 252.202 90.8672 250.744 91.5703C249.286 92.2474 247.593 92.5859 245.666 92.5859ZM249.064 84.4219C250.366 84.4219 251.59 84.0182 252.736 83.2109C253.882 82.3776 254.741 81.3229 255.314 80.0469V76.2188C248.83 76.2188 245.588 77.9245 245.588 81.3359C245.588 82.2474 245.887 82.9896 246.486 83.5625C247.111 84.1354 247.971 84.4219 249.064 84.4219ZM284.885 92.5859C281.577 92.5859 279.051 91.6615 277.307 89.8125C275.588 87.9375 274.728 85.099 274.728 81.2969V41.8828C274.728 40.3724 276.122 39.6172 278.908 39.6172H280.861C282.293 39.6172 283.335 39.8125 283.986 40.2031C284.663 40.5677 285.002 41.1276 285.002 41.8828V81.4141C285.002 82.4818 285.197 83.25 285.588 83.7188C285.978 84.1875 286.629 84.4219 287.541 84.4219C287.775 84.4219 288.127 84.3698 288.596 84.2656C288.726 84.2396 288.856 84.2135 288.986 84.1875C289.116 84.1615 289.26 84.1484 289.416 84.1484C289.807 84.1484 290.158 84.5 290.471 85.2031C290.809 85.8802 291.07 86.6484 291.252 87.5078C291.434 88.3411 291.525 88.888 291.525 89.1484C291.525 91.4401 289.312 92.5859 284.885 92.5859ZM303.01 106.336C300.223 106.336 298.83 105.841 298.83 104.852C298.83 104.461 298.921 104.044 299.103 103.602L303.517 92L292.033 58.3281C292.007 58.1719 291.955 57.9635 291.877 57.7031C291.799 57.4167 291.76 57.2083 291.76 57.0781C291.76 56.5573 292.098 56.1797 292.775 55.9453C293.452 55.6849 294.52 55.5547 295.978 55.5547H298.244C299.338 55.5547 300.21 55.6719 300.861 55.9062C301.538 56.1146 301.955 56.4792 302.111 57L306.174 69.8125C306.434 70.6198 306.76 71.9219 307.15 73.7188C307.541 75.4896 307.775 76.5443 307.853 76.8828L308.127 78.2109H308.439C308.465 78.0286 308.53 77.7552 308.635 77.3906C309.494 73.224 310.08 70.6979 310.392 69.8125L314.455 57C314.637 56.4531 315.054 56.0755 315.705 55.8672C316.382 55.6589 317.267 55.5547 318.361 55.5547H320.041C321.473 55.5547 322.515 55.6849 323.166 55.9453C323.843 56.1797 324.182 56.5573 324.182 57.0781C324.182 57.3385 324.116 57.7552 323.986 58.3281L308.049 104.852C307.71 105.841 306.421 106.336 304.182 106.336H303.01ZM340.002 92.5859C336.695 92.5859 334.168 91.6615 332.424 89.8125C330.705 87.9375 329.846 85.099 329.846 81.2969V63.7969H328.752C328.023 63.7969 327.489 63.5234 327.15 62.9766C326.838 62.4297 326.682 61.5443 326.682 60.3203V59.1484C326.682 57.9245 326.838 57.0391 327.15 56.4922C327.489 55.9453 328.023 55.6719 328.752 55.6719H329.846L330.744 49.0703C330.952 47.612 332.202 46.8828 334.494 46.8828H336.682C337.879 46.8828 338.752 47.0651 339.299 47.4297C339.872 47.7943 340.158 48.3411 340.158 49.0703V55.6719H343.557C344.286 55.6719 344.807 55.9453 345.119 56.4922C345.458 57.0391 345.627 57.9245 345.627 59.1484V60.3203C345.627 61.5443 345.458 62.4297 345.119 62.9766C344.807 63.5234 344.286 63.7969 343.557 63.7969H340.158V81.4141C340.158 82.4818 340.34 83.25 340.705 83.7188C341.096 84.1875 341.734 84.4219 342.619 84.4219C342.879 84.4219 343.231 84.3828 343.674 84.3047C344.116 84.2005 344.39 84.1484 344.494 84.1484C344.911 84.1484 345.275 84.5 345.588 85.2031C345.926 85.8802 346.187 86.6354 346.369 87.4688C346.577 88.3021 346.682 88.862 346.682 89.1484C346.682 91.4401 344.455 92.5859 340.002 92.5859ZM356.603 49.6953C355.145 49.6953 354.077 49.513 353.4 49.1484C352.749 48.7839 352.424 48.224 352.424 47.4688V41.8828C352.424 41.1276 352.762 40.5677 353.439 40.2031C354.116 39.8125 355.171 39.6172 356.603 39.6172H358.517C359.95 39.6172 361.004 39.8125 361.682 40.2031C362.359 40.5677 362.697 41.1276 362.697 41.8828V47.4688C362.697 48.224 362.359 48.7839 361.682 49.1484C361.03 49.513 359.976 49.6953 358.517 49.6953H356.603ZM356.603 92.1172C353.817 92.1172 352.424 91.388 352.424 89.9297V57.7422C352.424 57.013 352.762 56.4661 353.439 56.1016C354.116 55.737 355.171 55.5547 356.603 55.5547H358.517C359.95 55.5547 361.004 55.737 361.682 56.1016C362.359 56.4661 362.697 57.013 362.697 57.7422V89.9297C362.697 91.388 361.304 92.1172 358.517 92.1172H356.603ZM387.15 92.5859C381.239 92.5859 376.851 91.0625 373.986 88.0156C371.122 84.9427 369.689 80.2943 369.689 74.0703C369.689 67.7943 371.135 63.0677 374.025 59.8906C376.916 56.7135 381.421 55.125 387.541 55.125C389.286 55.125 391.043 55.3203 392.814 55.7109C394.611 56.0755 396.096 56.6224 397.267 57.3516C398.465 58.0547 399.064 58.9141 399.064 59.9297C399.064 60.3464 398.83 60.9974 398.361 61.8828C397.918 62.7682 397.398 63.5625 396.799 64.2656C396.226 64.9427 395.744 65.2812 395.353 65.2812C395.171 65.2812 394.767 65.099 394.142 64.7344C393.153 64.2656 392.215 63.901 391.33 63.6406C390.445 63.3542 389.364 63.2109 388.088 63.2109C385.353 63.2109 383.361 64.0833 382.111 65.8281C380.861 67.5469 380.236 70.2031 380.236 73.7969C380.236 77.4167 380.822 80.099 381.994 81.8438C383.192 83.5625 385.093 84.4219 387.697 84.4219C389.129 84.4219 390.379 84.2786 391.447 83.9922C392.515 83.6797 393.53 83.2891 394.494 82.8203C394.676 82.7422 394.898 82.651 395.158 82.5469C395.418 82.4427 395.614 82.3906 395.744 82.3906C396.213 82.3906 396.721 82.7292 397.267 83.4062C397.84 84.0573 398.322 84.8125 398.713 85.6719C399.129 86.5312 399.338 87.1953 399.338 87.6641C399.338 88.862 398.557 89.8255 396.994 90.5547C395.432 91.2839 393.687 91.8047 391.76 92.1172C389.833 92.4297 388.296 92.5859 387.15 92.5859ZM414.103 92.5859C412.307 92.5859 410.523 92.3906 408.752 92C406.981 91.6094 405.51 91.0495 404.338 90.3203C403.192 89.5911 402.619 88.7578 402.619 87.8203C402.619 87.2474 402.827 86.5312 403.244 85.6719C403.661 84.8125 404.155 84.0703 404.728 83.4453C405.327 82.7943 405.848 82.4688 406.291 82.4688C406.525 82.4688 407.033 82.651 407.814 83.0156C408.726 83.4323 409.598 83.7708 410.432 84.0312C411.265 84.2917 412.215 84.4219 413.283 84.4219C414.611 84.4219 415.614 84.1745 416.291 83.6797C416.968 83.1849 417.307 82.4557 417.307 81.4922C417.307 80.763 417.098 80.1641 416.682 79.6953C416.291 79.2005 415.783 78.7969 415.158 78.4844C414.533 78.1719 413.648 77.7943 412.502 77.3516L411.369 76.9219C409.885 76.349 408.583 75.6979 407.463 74.9688C406.343 74.2396 405.392 73.1849 404.611 71.8047C403.83 70.3984 403.439 68.6276 403.439 66.4922C403.439 64.1224 403.947 62.0911 404.963 60.3984C406.004 58.6797 407.476 57.3776 409.377 56.4922C411.278 55.5807 413.517 55.125 416.096 55.125C417.58 55.125 419.129 55.2682 420.744 55.5547C422.359 55.8411 423.713 56.2839 424.807 56.8828C425.926 57.4818 426.486 58.237 426.486 59.1484C426.486 59.6693 426.317 60.3724 425.978 61.2578C425.666 62.1432 425.275 62.9245 424.807 63.6016C424.338 64.2786 423.895 64.6172 423.478 64.6172C423.348 64.6172 422.984 64.5 422.385 64.2656C421.577 63.9271 420.796 63.6667 420.041 63.4844C419.312 63.276 418.465 63.1719 417.502 63.1719C415.054 63.1719 413.83 63.9792 413.83 65.5938C413.83 66.3229 414.051 66.9479 414.494 67.4688C414.963 67.9896 415.536 68.4193 416.213 68.7578C416.89 69.0964 417.84 69.5 419.064 69.9688C420.471 70.5417 421.343 70.9062 421.682 71.0625C423.504 71.974 424.963 73.1849 426.057 74.6953C427.176 76.1797 427.736 78.1719 427.736 80.6719C427.736 83.0417 427.202 85.125 426.135 86.9219C425.067 88.7188 423.504 90.112 421.447 91.1016C419.39 92.0911 416.942 92.5859 414.103 92.5859Z" fill="black"/>
<path fill-rule="evenodd" clip-rule="evenodd" d="M82.8923 70.1806L55.5095 86.4062C54.9676 86.9214 54.2732 87.2474 53.5309 87.3355C52.9719 87.4834 52.3822 87.4686 51.8314 87.2923C51.2807 87.1166 50.7915 86.7871 50.4212 86.3423L35.334 71.4036L20.2112 86.4062C19.5387 87.0705 18.6306 87.4426 17.6854 87.4426C16.7396 87.4426 15.8322 87.0705 15.159 86.4062C14.4965 85.7437 14.1244 84.8452 14.1244 83.9083C14.1244 82.9714 14.4965 82.0728 15.159 81.4103L32.7898 63.9203C33.47 63.256 34.3828 62.8846 35.3333 62.8846C36.2839 62.8846 37.1973 63.256 37.8775 63.9203L53.1778 79.0889L79.7838 63.3055V63.3049C80.599 62.8074 81.5921 62.6945 82.4984 62.9973C83.404 63.2996 84.1303 63.9863 84.4828 64.8737C84.8933 65.8029 84.9584 66.8482 84.6674 67.8206C84.3758 68.7937 83.7464 69.6307 82.8928 70.1808L82.8923 70.1806ZM81.2675 108.733C82.5298 108.733 83.6962 109.407 84.3274 110.5C84.9585 111.593 84.9585 112.94 84.3274 114.033C83.6962 115.126 82.5298 115.8 81.2675 115.8H3.53312C2.59615 115.8 1.69765 115.428 1.03515 114.765C0.37206 114.102 0 113.203 0 112.267V34.5322C0 33.27 0.673736 32.1035 1.76687 31.4723C2.86 30.8412 4.20684 30.8412 5.3 31.4723C6.39316 32.1035 7.06687 33.2699 7.06687 34.5322V108.732L81.2675 108.733Z" fill="#101010"/>
</svg>
