<svg width="424" height="101" viewBox="0 0 424 101" fill="none" xmlns="http://www.w3.org/2000/svg">
<path d="M0 12V100.517H71V12H0ZM66.6207 96.0446H4.37927V16.4724H66.5276V96.0446H66.6207Z" fill="black"/>
<path d="M14.8149 27.8399H34.0092V32.3122H14.8149V27.8399Z" fill="black"/>
<path d="M14.8149 38.3688H56.185V42.841H14.8149V38.3688Z" fill="black"/>
<path d="M14.8149 48.8045H56.185V53.2768H14.8149V48.8045Z" fill="black"/>
<path d="M14.8149 59.2402H56.185V63.7124H14.8149V59.2402Z" fill="black"/>
<path d="M14.8149 69.769H56.185V74.2413H14.8149V69.769Z" fill="black"/>
<path d="M45.097 80.2047H56.1851V84.677H45.097V80.2047Z" fill="black"/>
<path d="M119 79.88C111.693 79.88 106.28 77.8267 102.76 73.72C99.24 69.56 97.48 63.9067 97.48 56.76C97.48 51.9067 98.3867 47.72 100.2 44.2C102.013 40.68 104.547 38.0133 107.8 36.2C111.107 34.3333 114.973 33.4 119.4 33.4C125 33.4 129.267 34.8133 132.2 37.64C135.187 40.4667 136.733 44.4667 136.84 49.64C136.84 53.0533 136.6 55.8 136.12 57.88H111.08C111.347 62.4133 112.44 65.88 114.36 68.28C116.333 70.6267 119.08 71.8 122.6 71.8C124.573 71.8 126.627 71.48 128.76 70.84C130.947 70.1467 132.707 69.3733 134.04 68.52L136.28 73.4C134.893 74.9467 132.52 76.4133 129.16 77.8C125.853 79.1867 122.467 79.88 119 79.88ZM124.12 52.6L124.2 49.24C124.2 45.88 123.747 43.32 122.84 41.56C121.933 39.8 120.387 38.92 118.2 38.92C115.96 38.92 114.227 39.9067 113 41.88C111.773 43.8 111.107 47.3733 111 52.6H124.12ZM152.657 72.36C153.03 72.9467 153.884 73.48 155.217 73.96C156.604 74.44 157.99 74.68 159.377 74.68C161.564 74.68 163.217 74.2267 164.337 73.32C165.51 72.36 166.097 71.1333 166.097 69.64C166.097 68.04 165.35 66.7333 163.857 65.72C162.364 64.6533 159.91 63.3733 156.497 61.88L153.457 60.52C149.99 58.9733 147.377 57.1067 145.617 54.92C143.91 52.68 143.057 49.8533 143.057 46.44C143.057 43.9867 143.777 41.8 145.217 39.88C146.657 37.9067 148.737 36.36 151.457 35.24C154.177 34.12 157.377 33.56 161.057 33.56C163.617 33.56 165.83 33.72 167.697 34.04C169.564 34.36 171.457 34.76 173.377 35.24C174.657 35.6133 175.617 35.8267 176.257 35.88V46.76H169.137L167.057 40.6C166.79 40.12 166.15 39.6933 165.137 39.32C164.124 38.8933 162.977 38.68 161.697 38.68C159.67 38.68 158.07 39.1333 156.897 40.04C155.724 40.8933 155.137 42.0667 155.137 43.56C155.137 45.2667 155.804 46.6267 157.137 47.64C158.47 48.6 160.604 49.7467 163.537 51.08L165.217 51.8C169.537 53.6133 172.924 55.5867 175.377 57.72C177.83 59.8 179.057 62.68 179.057 66.36C179.057 70.3067 177.484 73.56 174.337 76.12C171.19 78.6267 166.55 79.88 160.417 79.88C157.59 79.88 155.084 79.64 152.897 79.16C150.71 78.7333 148.31 78.1467 145.697 77.4L143.057 76.68V66.04H150.657L152.657 72.36ZM194.923 72.36C195.296 72.9467 196.149 73.48 197.483 73.96C198.869 74.44 200.256 74.68 201.643 74.68C203.829 74.68 205.483 74.2267 206.603 73.32C207.776 72.36 208.363 71.1333 208.363 69.64C208.363 68.04 207.616 66.7333 206.123 65.72C204.629 64.6533 202.176 63.3733 198.763 61.88L195.723 60.52C192.256 58.9733 189.643 57.1067 187.883 54.92C186.176 52.68 185.323 49.8533 185.323 46.44C185.323 43.9867 186.043 41.8 187.483 39.88C188.923 37.9067 191.003 36.36 193.723 35.24C196.443 34.12 199.643 33.56 203.323 33.56C205.883 33.56 208.096 33.72 209.963 34.04C211.829 34.36 213.723 34.76 215.643 35.24C216.923 35.6133 217.883 35.8267 218.523 35.88V46.76H211.403L209.323 40.6C209.056 40.12 208.416 39.6933 207.403 39.32C206.389 38.8933 205.243 38.68 203.963 38.68C201.936 38.68 200.336 39.1333 199.163 40.04C197.989 40.8933 197.403 42.0667 197.403 43.56C197.403 45.2667 198.069 46.6267 199.403 47.64C200.736 48.6 202.869 49.7467 205.803 51.08L207.483 51.8C211.803 53.6133 215.189 55.5867 217.643 57.72C220.096 59.8 221.323 62.68 221.323 66.36C221.323 70.3067 219.749 73.56 216.603 76.12C213.456 78.6267 208.816 79.88 202.682 79.88C199.856 79.88 197.349 79.64 195.163 79.16C192.976 78.7333 190.576 78.1467 187.963 77.4L185.323 76.68V66.04H192.923L194.923 72.36ZM226.068 66.2C226.068 61.5067 228.441 57.9067 233.188 55.4C237.988 52.8933 244.281 51.6133 252.068 51.56V49.96C252.068 48.04 251.855 46.52 251.428 45.4C251.001 44.28 250.228 43.4533 249.108 42.92C247.988 42.3333 246.335 42.04 244.148 42.04C241.535 42.04 239.188 42.36 237.108 43C235.081 43.5867 232.948 44.3867 230.708 45.4L227.988 39.64C228.841 38.9467 230.228 38.12 232.148 37.16C234.068 36.1467 236.361 35.2933 239.028 34.6C241.748 33.8533 244.575 33.48 247.508 33.48C251.775 33.48 255.108 34.04 257.508 35.16C259.961 36.28 261.695 38.0133 262.708 40.36C263.775 42.7067 264.308 45.9067 264.308 49.96V73.72H268.468V78.76C267.241 79.0267 265.535 79.2933 263.348 79.56C261.161 79.8267 259.295 79.96 257.748 79.96C255.721 79.96 254.361 79.6667 253.668 79.08C253.028 78.4933 252.708 77.32 252.708 75.56V73.72C251.375 75.32 249.588 76.76 247.348 78.04C245.108 79.2667 242.521 79.88 239.588 79.88C237.081 79.88 234.788 79.3467 232.708 78.28C230.681 77.16 229.055 75.5867 227.828 73.56C226.655 71.48 226.068 69.0267 226.068 66.2ZM245.828 72.52C246.788 72.52 247.855 72.2533 249.028 71.72C250.201 71.1333 251.215 70.44 252.068 69.64V56.92C247.908 56.92 244.815 57.6667 242.788 59.16C240.815 60.6533 239.828 62.5733 239.828 64.92C239.828 67.32 240.361 69.1867 241.428 70.52C242.495 71.8533 243.961 72.52 245.828 72.52ZM280.653 98.92C279.533 98.92 278.36 98.84 277.133 98.68C275.96 98.52 275.106 98.3067 274.573 98.04V88.44C274.946 88.7067 275.746 88.9467 276.973 89.16C278.2 89.4267 279.32 89.56 280.333 89.56C283.053 89.56 285.213 88.7067 286.813 87C288.413 85.2933 289.88 82.6267 291.213 79H286.573L271.613 40.6L268.093 39.64V34.52H291.693V39.64L286.093 40.6L292.733 61.88L295.133 69.96L297.053 61.88L303.213 40.52L298.413 39.64V34.52H316.493V39.64L312.653 40.52C310.413 47.4 307.666 55.48 304.413 64.76C301.213 74.04 299.426 79.1067 299.053 79.96C297.453 84.3867 295.826 87.9333 294.173 90.6C292.573 93.32 290.68 95.3733 288.493 96.76C286.306 98.2 283.693 98.92 280.653 98.92ZM328.433 27.64C326.353 27.64 324.673 27.0267 323.393 25.8C322.113 24.5733 321.473 23 321.473 21.08C321.473 18.84 322.166 17 323.553 15.56C324.993 14.12 326.913 13.4 329.313 13.4C331.713 13.4 333.553 14.0133 334.833 15.24C336.113 16.4667 336.753 18.04 336.753 19.96C336.753 22.2533 336.033 24.12 334.593 25.56C333.153 26.9467 331.126 27.64 328.513 27.64H328.433ZM323.553 42.92L318.193 41.4V35.4L334.193 33.48H334.353L336.833 35.16V73L341.633 73.72V79H318.593V73.72L323.553 73V42.92ZM352.468 41.24H346.228V36.28L352.468 34.68V31.32C352.468 27.7467 353.428 24.4933 355.348 21.56C357.268 18.6267 359.828 16.3067 363.028 14.6C366.281 12.8933 369.775 12.04 373.508 12.04C375.481 12.04 377.268 12.3067 378.868 12.84V24.44C378.281 23.8 377.135 23.1867 375.428 22.6C373.721 21.96 372.041 21.64 370.388 21.64C368.628 21.64 367.375 22.0933 366.628 23C365.881 23.9067 365.508 25.4 365.508 27.48V34.6H375.108V41.24H365.508V73L373.588 73.72V79H346.308V73.72L352.468 73V41.24ZM388.075 98.92C386.955 98.92 385.782 98.84 384.555 98.68C383.382 98.52 382.528 98.3067 381.995 98.04V88.44C382.368 88.7067 383.168 88.9467 384.395 89.16C385.622 89.4267 386.742 89.56 387.755 89.56C390.475 89.56 392.635 88.7067 394.235 87C395.835 85.2933 397.302 82.6267 398.635 79H393.995L379.035 40.6L375.515 39.64V34.52H399.115V39.64L393.515 40.6L400.155 61.88L402.555 69.96L404.475 61.88L410.635 40.52L405.835 39.64V34.52H423.915V39.64L420.075 40.52C417.835 47.4 415.088 55.48 411.835 64.76C408.635 74.04 406.848 79.1067 406.475 79.96C404.875 84.3867 403.248 87.9333 401.595 90.6C399.995 93.32 398.102 95.3733 395.915 96.76C393.728 98.2 391.115 98.92 388.075 98.92Z" fill="black"/>
</svg>
