<svg data-v-423bf9ae="" xmlns="http://www.w3.org/2000/svg" viewBox="0 0 356 90" class="iconLeft"><!----><!----><!----><g data-v-423bf9ae="" id="20ef65fa-c289-4b90-9007-c9fe2bf997c5" fill="black" transform="matrix(5,0,0,5,106.1999979019165,-10.94999885559082)"><path d="M0.76 13.69L0.76 7.90L0.76 7.90Q0.76 7.18 1.00 6.67L1.00 6.67L1.00 6.67Q1.25 6.16 1.67 5.83L1.67 5.83L1.67 5.83Q2.09 5.50 2.65 5.35L2.65 5.35L2.65 5.35Q3.22 5.19 3.86 5.19L3.86 5.19L3.86 5.19Q4.90 5.19 5.39 5.47L5.39 5.47L5.39 5.47Q5.88 5.74 5.88 6.40L5.88 6.40L5.88 6.40Q5.88 6.68 5.76 6.90L5.76 6.90L5.76 6.90Q5.64 7.13 5.50 7.24L5.50 7.24L5.50 7.24Q5.24 7.17 4.95 7.12L4.95 7.12L4.95 7.12Q4.66 7.07 4.28 7.07L4.28 7.07L4.28 7.07Q3.68 7.07 3.35 7.27L3.35 7.27L3.35 7.27Q3.01 7.48 3.01 7.98L3.01 7.98L3.01 8.43L5.31 8.43L5.31 8.43Q5.39 8.58 5.47 8.81L5.47 8.81L5.47 8.81Q5.54 9.04 5.54 9.32L5.54 9.32L5.54 9.32Q5.54 9.81 5.33 10.03L5.33 10.03L5.33 10.03Q5.11 10.25 4.75 10.25L4.75 10.25L3.14 10.25L3.14 14.69L3.14 14.69Q3.00 14.73 2.69 14.77L2.69 14.77L2.69 14.77Q2.39 14.81 2.07 14.81L2.07 14.81L2.07 14.81Q1.76 14.81 1.52 14.77L1.52 14.77L1.52 14.77Q1.27 14.73 1.11 14.60L1.11 14.60L1.11 14.60Q0.94 14.48 0.85 14.26L0.85 14.26L0.85 14.26Q0.76 14.04 0.76 13.69L0.76 13.69ZM9.66 13.19L9.66 13.19L9.66 13.19Q9.90 13.19 10.19 13.14L10.19 13.14L10.19 13.14Q10.47 13.09 10.61 13.01L10.61 13.01L10.61 11.89L9.60 11.97L9.60 11.97Q9.21 12.00 8.96 12.14L8.96 12.14L8.96 12.14Q8.71 12.28 8.71 12.56L8.71 12.56L8.71 12.56Q8.71 12.84 8.93 13.01L8.93 13.01L8.93 13.01Q9.14 13.19 9.66 13.19ZM9.55 7.69L9.55 7.69L9.55 7.69Q10.30 7.69 10.93 7.84L10.93 7.84L10.93 7.84Q11.55 7.99 11.99 8.31L11.99 8.31L11.99 8.31Q12.43 8.62 12.67 9.11L12.67 9.11L12.67 9.11Q12.91 9.59 12.91 10.25L12.91 10.25L12.91 13.38L12.91 13.38Q12.91 13.75 12.71 13.98L12.71 13.98L12.71 13.98Q12.50 14.21 12.22 14.38L12.22 14.38L12.22 14.38Q11.31 14.92 9.66 14.92L9.66 14.92L9.66 14.92Q8.92 14.92 8.32 14.78L8.32 14.78L8.32 14.78Q7.73 14.64 7.30 14.36L7.30 14.36L7.30 14.36Q6.87 14.08 6.64 13.65L6.64 13.65L6.64 13.65Q6.41 13.22 6.41 12.64L6.41 12.64L6.41 12.64Q6.41 11.68 6.99 11.16L6.99 11.16L6.99 11.16Q7.56 10.64 8.76 10.51L8.76 10.51L10.60 10.32L10.60 10.22L10.60 10.22Q10.60 9.81 10.24 9.64L10.24 9.64L10.24 9.64Q9.88 9.46 9.21 9.46L9.21 9.46L9.21 9.46Q8.68 9.46 8.18 9.58L8.18 9.58L8.18 9.58Q7.67 9.69 7.27 9.86L7.27 9.86L7.27 9.86Q7.08 9.73 6.96 9.47L6.96 9.47L6.96 9.47Q6.83 9.21 6.83 8.93L6.83 8.93L6.83 8.93Q6.83 8.57 7.01 8.35L7.01 8.35L7.01 8.35Q7.18 8.13 7.55 7.98L7.55 7.98L7.55 7.98Q7.95 7.83 8.51 7.76L8.51 7.76L8.51 7.76Q9.06 7.69 9.55 7.69ZM16.74 9.91L16.74 14.69L16.74 14.69Q16.60 14.73 16.30 14.77L16.30 14.77L16.30 14.77Q16.00 14.81 15.68 14.81L15.68 14.81L15.68 14.81Q15.37 14.81 15.13 14.77L15.13 14.77L15.13 14.77Q14.88 14.73 14.71 14.60L14.71 14.60L14.71 14.60Q14.55 14.48 14.46 14.26L14.46 14.26L14.46 14.26Q14.36 14.04 14.36 13.69L14.36 13.69L14.36 9.49L14.36 9.49Q14.36 9.17 14.48 8.94L14.48 8.94L14.48 8.94Q14.60 8.71 14.83 8.53L14.83 8.53L14.83 8.53Q15.05 8.34 15.38 8.20L15.38 8.20L15.38 8.20Q15.71 8.05 16.09 7.94L16.09 7.94L16.09 7.94Q16.46 7.83 16.87 7.76L16.87 7.76L16.87 7.76Q17.28 7.70 17.68 7.70L17.68 7.70L17.68 7.70Q18.35 7.70 18.75 7.96L18.75 7.96L18.75 7.96Q19.14 8.22 19.14 8.81L19.14 8.81L19.14 8.81Q19.14 9.00 19.08 9.19L19.08 9.19L19.08 9.19Q19.03 9.38 18.94 9.53L18.94 9.53L18.94 9.53Q18.65 9.53 18.34 9.56L18.34 9.56L18.34 9.56Q18.03 9.59 17.74 9.65L17.74 9.65L17.74 9.65Q17.44 9.70 17.19 9.77L17.19 9.77L17.19 9.77Q16.93 9.83 16.74 9.91L16.74 9.91ZM23.03 13.19L23.03 13.19L23.03 13.19Q23.27 13.19 23.55 13.14L23.55 13.14L23.55 13.14Q23.84 13.09 23.98 13.01L23.98 13.01L23.98 11.89L22.97 11.97L22.97 11.97Q22.58 12.00 22.33 12.14L22.33 12.14L22.33 12.14Q22.08 12.28 22.08 12.56L22.08 12.56L22.08 12.56Q22.08 12.84 22.30 13.01L22.30 13.01L22.30 13.01Q22.51 13.19 23.03 13.19ZM22.92 7.69L22.92 7.69L22.92 7.69Q23.67 7.69 24.30 7.84L24.30 7.84L24.30 7.84Q24.92 7.99 25.36 8.31L25.36 8.31L25.36 8.31Q25.80 8.62 26.04 9.11L26.04 9.11L26.04 9.11Q26.28 9.59 26.28 10.25L26.28 10.25L26.28 13.38L26.28 13.38Q26.28 13.75 26.08 13.98L26.08 13.98L26.08 13.98Q25.87 14.21 25.59 14.38L25.59 14.38L25.59 14.38Q24.68 14.92 23.03 14.92L23.03 14.92L23.03 14.92Q22.29 14.92 21.69 14.78L21.69 14.78L21.69 14.78Q21.10 14.64 20.67 14.36L20.67 14.36L20.67 14.36Q20.24 14.08 20.01 13.65L20.01 13.65L20.01 13.65Q19.78 13.22 19.78 12.64L19.78 12.64L19.78 12.64Q19.78 11.68 20.36 11.16L20.36 11.16L20.36 11.16Q20.93 10.64 22.13 10.51L22.13 10.51L23.97 10.32L23.97 10.22L23.97 10.22Q23.97 9.81 23.61 9.64L23.61 9.64L23.61 9.64Q23.25 9.46 22.58 9.46L22.58 9.46L22.58 9.46Q22.05 9.46 21.55 9.58L21.55 9.58L21.55 9.58Q21.04 9.69 20.64 9.86L20.64 9.86L20.64 9.86Q20.45 9.73 20.33 9.47L20.33 9.47L20.33 9.47Q20.20 9.21 20.20 8.93L20.20 8.93L20.20 8.93Q20.20 8.57 20.38 8.35L20.38 8.35L20.38 8.35Q20.55 8.13 20.92 7.98L20.92 7.98L20.92 7.98Q21.32 7.83 21.88 7.76L21.88 7.76L21.88 7.76Q22.43 7.69 22.92 7.69ZM30.86 7.69L30.86 7.69L30.86 7.69Q31.70 7.69 32.42 7.90L32.42 7.90L32.42 7.90Q33.14 8.12 33.66 8.57L33.66 8.57L33.66 8.57Q34.17 9.02 34.47 9.70L34.47 9.70L34.47 9.70Q34.76 10.37 34.76 11.31L34.76 11.31L34.76 11.31Q34.76 12.21 34.51 12.88L34.51 12.88L34.51 12.88Q34.26 13.55 33.80 14.01L33.80 14.01L33.80 14.01Q33.33 14.46 32.68 14.69L32.68 14.69L32.68 14.69Q32.03 14.91 31.23 14.91L31.23 14.91L31.23 14.91Q30.63 14.91 30.11 14.73L30.11 14.73L30.11 17.05L30.11 17.05Q29.97 17.09 29.67 17.14L29.67 17.14L29.67 17.14Q29.36 17.19 29.04 17.19L29.04 17.19L29.04 17.19Q28.73 17.19 28.48 17.15L28.48 17.15L28.48 17.15Q28.24 17.11 28.07 16.98L28.07 16.98L28.07 16.98Q27.90 16.86 27.82 16.64L27.82 16.64L27.82 16.64Q27.73 16.42 27.73 16.07L27.73 16.07L27.73 9.35L27.73 9.35Q27.73 8.97 27.89 8.74L27.89 8.74L27.89 8.74Q28.06 8.50 28.34 8.30L28.34 8.30L28.34 8.30Q28.77 8.02 29.41 7.85L29.41 7.85L29.41 7.85Q30.06 7.69 30.86 7.69ZM30.88 13.03L30.88 13.03L30.88 13.03Q32.33 13.03 32.33 11.31L32.33 11.31L32.33 11.31Q32.33 10.42 31.97 9.98L31.97 9.98L31.97 9.98Q31.61 9.55 30.94 9.55L30.94 9.55L30.94 9.55Q30.67 9.55 30.46 9.61L30.46 9.61L30.46 9.61Q30.25 9.67 30.10 9.76L30.10 9.76L30.10 12.84L30.10 12.84Q30.27 12.92 30.46 12.98L30.46 12.98L30.46 12.98Q30.66 13.03 30.88 13.03ZM39.05 7.69L39.05 7.69L39.05 7.69Q39.89 7.69 40.61 7.90L40.61 7.90L40.61 7.90Q41.33 8.12 41.85 8.57L41.85 8.57L41.85 8.57Q42.36 9.02 42.66 9.70L42.66 9.70L42.66 9.70Q42.95 10.37 42.95 11.31L42.95 11.31L42.95 11.31Q42.95 12.21 42.70 12.88L42.70 12.88L42.70 12.88Q42.45 13.55 41.99 14.01L41.99 14.01L41.99 14.01Q41.52 14.46 40.87 14.69L40.87 14.69L40.87 14.69Q40.22 14.91 39.42 14.91L39.42 14.91L39.42 14.91Q38.82 14.91 38.30 14.73L38.30 14.73L38.30 17.05L38.30 17.05Q38.16 17.09 37.86 17.14L37.86 17.14L37.86 17.14Q37.55 17.19 37.23 17.19L37.23 17.19L37.23 17.19Q36.92 17.19 36.67 17.15L36.67 17.15L36.67 17.15Q36.43 17.11 36.26 16.98L36.26 16.98L36.26 16.98Q36.09 16.86 36.01 16.64L36.01 16.64L36.01 16.64Q35.92 16.42 35.92 16.07L35.92 16.07L35.92 9.35L35.92 9.35Q35.92 8.97 36.09 8.74L36.09 8.74L36.09 8.74Q36.25 8.50 36.53 8.30L36.53 8.30L36.53 8.30Q36.96 8.02 37.60 7.85L37.60 7.85L37.60 7.85Q38.25 7.69 39.05 7.69ZM39.07 13.03L39.07 13.03L39.07 13.03Q40.52 13.03 40.52 11.31L40.52 11.31L40.52 11.31Q40.52 10.42 40.16 9.98L40.16 9.98L40.16 9.98Q39.80 9.55 39.13 9.55L39.13 9.55L39.13 9.55Q38.86 9.55 38.65 9.61L38.65 9.61L38.65 9.61Q38.44 9.67 38.29 9.76L38.29 9.76L38.29 12.84L38.29 12.84Q38.46 12.92 38.65 12.98L38.65 12.98L38.65 12.98Q38.85 13.03 39.07 13.03ZM49.85 12.67L49.85 12.67L49.85 12.67Q49.85 13.73 49.06 14.34L49.06 14.34L49.06 14.34Q48.26 14.94 46.70 14.94L46.70 14.94L46.70 14.94Q46.12 14.94 45.61 14.85L45.61 14.85L45.61 14.85Q45.11 14.77 44.75 14.60L44.75 14.60L44.75 14.60Q44.39 14.42 44.19 14.15L44.19 14.15L44.19 14.15Q43.99 13.89 43.99 13.52L43.99 13.52L43.99 13.52Q43.99 13.19 44.13 12.96L44.13 12.96L44.13 12.96Q44.27 12.73 44.46 12.57L44.46 12.57L44.46 12.57Q44.87 12.80 45.39 12.97L45.39 12.97L45.39 12.97Q45.92 13.15 46.61 13.15L46.61 13.15L46.61 13.15Q47.04 13.15 47.27 13.02L47.27 13.02L47.27 13.02Q47.50 12.89 47.50 12.68L47.50 12.68L47.50 12.68Q47.50 12.49 47.33 12.38L47.33 12.38L47.33 12.38Q47.17 12.26 46.77 12.19L46.77 12.19L46.35 12.11L46.35 12.11Q45.14 11.87 44.54 11.36L44.54 11.36L44.54 11.36Q43.95 10.85 43.95 9.90L43.95 9.90L43.95 9.90Q43.95 9.38 44.17 8.96L44.17 8.96L44.17 8.96Q44.39 8.54 44.80 8.26L44.80 8.26L44.80 8.26Q45.21 7.98 45.77 7.83L45.77 7.83L45.77 7.83Q46.34 7.67 47.03 7.67L47.03 7.67L47.03 7.67Q47.54 7.67 48.00 7.75L48.00 7.75L48.00 7.75Q48.45 7.83 48.79 7.98L48.79 7.98L48.79 7.98Q49.13 8.13 49.32 8.38L49.32 8.38L49.32 8.38Q49.52 8.62 49.52 8.96L49.52 8.96L49.52 8.96Q49.52 9.28 49.40 9.51L49.40 9.51L49.40 9.51Q49.28 9.74 49.10 9.90L49.10 9.90L49.10 9.90Q48.99 9.83 48.76 9.75L48.76 9.75L48.76 9.75Q48.54 9.67 48.27 9.61L48.27 9.61L48.27 9.61Q48.01 9.55 47.73 9.51L47.73 9.51L47.73 9.51Q47.46 9.46 47.24 9.46L47.24 9.46L47.24 9.46Q46.77 9.46 46.52 9.57L46.52 9.57L46.52 9.57Q46.27 9.67 46.27 9.90L46.27 9.90L46.27 9.90Q46.27 10.05 46.41 10.15L46.41 10.15L46.41 10.15Q46.55 10.25 46.94 10.33L46.94 10.33L47.38 10.43L47.38 10.43Q48.72 10.74 49.29 11.28L49.29 11.28L49.29 11.28Q49.85 11.82 49.85 12.67Z"></path></g><!----><g data-v-423bf9ae="" id="4500e659-3b3a-45b7-aeb5-d7adeeea1f2d" transform="matrix(2.8125,0,0,2.8125,0,1.0290013551712036)" stroke="none" fill="black"><path d="M0 31.984h32v-32H0v32zm2-30h28v28H2v-28z"></path><path d="M6.439 16.831h8.959l-4.48-7.741zM16.602 13.331h8.959L21.082 5.59zM6.439 26.41h8.959l-4.48-7.741zM16.602 22.91h8.959l-4.479-7.741z"></path></g><!----></svg>