<svg data-v-423bf9ae="" xmlns="http://www.w3.org/2000/svg" viewBox="0 0 403 90" class="iconLeft"><!----><!----><!----><g data-v-423bf9ae="" id="ea10b37f-7608-4fa6-906d-523ea9548234" fill="black" transform="matrix(5.181347184395977,0,0,5.181347184395977,101.29534285233885,1.0103606861349235)"><path d="M4.82 5.70L4.82 7L7.25 7L7.25 8.33L4.82 8.33L4.82 14L3.23 14L3.23 8.33L1.68 8.33L1.68 7L3.23 7L3.23 5.32L3.23 5.32Q3.23 4.06 4.05 3.38L4.05 3.38L4.05 3.38Q4.86 2.70 6.19 2.70L6.19 2.70L6.19 2.70Q7.04 2.70 7.69 2.94L7.69 2.94L7.21 4.17L7.21 4.17Q6.87 4.05 6.29 4.05L6.29 4.05L6.29 4.05Q5.47 4.05 5.15 4.42L5.15 4.42L5.15 4.42Q4.82 4.79 4.82 5.70L4.82 5.70ZM16.42 13.31L15.41 14.28L14.53 13.41L14.53 13.41Q13.61 14.15 12.31 14.15L12.31 14.15L12.31 14.15Q10.81 14.15 10.09 13.59L10.09 13.59L10.09 13.59Q9.38 13.03 9.38 11.86L9.38 11.86L9.38 11.86Q9.38 10.68 10.16 10.13L10.16 10.13L10.16 10.13Q10.93 9.58 12.59 9.58L12.59 9.58L14.01 9.58L14.01 9.21L14.01 9.21Q14.01 8.65 13.68 8.41L13.68 8.41L13.68 8.41Q13.34 8.16 12.59 8.16L12.59 8.16L12.59 8.16Q11.91 8.16 11.49 8.31L11.49 8.31L11.49 8.31Q11.06 8.46 10.79 8.76L10.79 8.76L9.79 7.78L9.79 7.78Q10.22 7.35 10.98 7.09L10.98 7.09L10.98 7.09Q11.73 6.83 12.70 6.83L12.70 6.83L12.70 6.83Q14.04 6.83 14.81 7.36L14.81 7.36L14.81 7.36Q15.58 7.88 15.58 8.85L15.58 8.85L15.58 12.47L16.42 13.31ZM10.93 11.86L10.93 11.86Q10.93 12.39 11.28 12.61L11.28 12.61L11.28 12.61Q11.63 12.84 12.54 12.84L12.54 12.84L12.54 12.84Q12.98 12.84 13.37 12.68L13.37 12.68L13.37 12.68Q13.76 12.53 14.01 12.29L14.01 12.29L14.01 10.82L13.06 10.82L13.06 10.82Q12.14 10.82 11.69 10.92L11.69 10.92L11.69 10.92Q11.24 11.02 11.09 11.23L11.09 11.23L11.09 11.23Q10.93 11.44 10.93 11.86L10.93 11.86ZM23.37 8.22L23.37 8.22Q22.69 8.22 22.22 8.53L22.22 8.53L22.22 8.53Q21.74 8.83 21.53 9.23L21.53 9.23L21.53 12.67L23.74 12.67L23.74 14L18.24 14L18.24 12.67L19.95 12.67L19.95 8.33L18.24 8.33L18.24 7L21.11 7L21.38 7.85L21.38 7.85Q21.76 7.36 22.33 7.10L22.33 7.10L22.33 7.10Q22.90 6.83 23.65 6.83L23.65 6.83L23.65 6.83Q24.32 6.83 24.85 7.10L24.85 7.10L24.39 8.44L24.39 8.44Q24.32 8.37 24.05 8.29L24.05 8.29L24.05 8.29Q23.77 8.22 23.37 8.22L23.37 8.22ZM32.72 12.57L32.72 12.57Q31.79 14.15 29.92 14.15L29.92 14.15L29.92 14.15Q28.43 14.15 27.49 13.27L27.49 13.27L27.49 13.27Q26.54 12.38 26.54 10.49L26.54 10.49L26.54 10.49Q26.54 8.58 27.48 7.71L27.48 7.71L27.48 7.71Q28.42 6.83 29.92 6.83L29.92 6.83L29.92 6.83Q30.83 6.83 31.54 7.22L31.54 7.22L31.54 7.22Q32.24 7.62 32.72 8.51L32.72 8.51L31.29 9.28L31.29 9.28Q30.84 8.18 29.88 8.18L29.88 8.18L29.88 8.18Q29.11 8.18 28.64 8.72L28.64 8.72L28.64 8.72Q28.18 9.27 28.18 10.49L28.18 10.49L28.18 10.49Q28.18 11.69 28.64 12.25L28.64 12.25L28.64 12.25Q29.11 12.81 29.88 12.81L29.88 12.81L29.88 12.81Q30.79 12.81 31.29 11.83L31.29 11.83L32.72 12.57ZM41.62 13.31L40.61 14.28L39.73 13.41L39.73 13.41Q38.81 14.15 37.51 14.15L37.51 14.15L37.51 14.15Q36.01 14.15 35.29 13.59L35.29 13.59L35.29 13.59Q34.58 13.03 34.58 11.86L34.58 11.86L34.58 11.86Q34.58 10.68 35.36 10.13L35.36 10.13L35.36 10.13Q36.13 9.58 37.79 9.58L37.79 9.58L39.21 9.58L39.21 9.21L39.21 9.21Q39.21 8.65 38.88 8.41L38.88 8.41L38.88 8.41Q38.54 8.16 37.79 8.16L37.79 8.16L37.79 8.16Q37.11 8.16 36.69 8.31L36.69 8.31L36.69 8.31Q36.26 8.46 35.99 8.76L35.99 8.76L34.99 7.78L34.99 7.78Q35.42 7.35 36.18 7.09L36.18 7.09L36.18 7.09Q36.93 6.83 37.90 6.83L37.90 6.83L37.90 6.83Q39.24 6.83 40.01 7.36L40.01 7.36L40.01 7.36Q40.78 7.88 40.78 8.85L40.78 8.85L40.78 12.47L41.62 13.31ZM36.13 11.86L36.13 11.86Q36.13 12.39 36.48 12.61L36.48 12.61L36.48 12.61Q36.83 12.84 37.74 12.84L37.74 12.84L37.74 12.84Q38.18 12.84 38.57 12.68L38.57 12.68L38.57 12.68Q38.96 12.53 39.21 12.29L39.21 12.29L39.21 10.82L38.26 10.82L38.26 10.82Q37.34 10.82 36.89 10.92L36.89 10.92L36.89 10.92Q36.44 11.02 36.29 11.23L36.29 11.23L36.29 11.23Q36.13 11.44 36.13 11.86L36.13 11.86ZM46.23 14.15L46.23 14.15Q45.22 14.15 44.32 13.83L44.32 13.83L44.32 13.83Q43.43 13.51 42.99 12.87L42.99 12.87L44.28 12.03L44.28 12.03Q44.49 12.39 45.08 12.61L45.08 12.61L45.08 12.61Q45.67 12.84 46.28 12.84L46.28 12.84L46.28 12.84Q46.93 12.84 47.37 12.64L47.37 12.64L47.37 12.64Q47.81 12.45 47.81 12.04L47.81 12.04L47.81 12.04Q47.81 11.75 47.54 11.55L47.54 11.55L47.54 11.55Q47.28 11.35 46.99 11.27L46.99 11.27L46.99 11.27Q46.70 11.19 46.17 11.05L46.17 11.05L46.17 11.05Q45.12 10.81 44.25 10.29L44.25 10.29L44.25 10.29Q43.39 9.77 43.39 8.76L43.39 8.76L43.39 8.76Q43.39 8.12 43.83 7.69L43.83 7.69L43.83 7.69Q44.28 7.25 44.96 7.04L44.96 7.04L44.96 7.04Q45.64 6.83 46.35 6.83L46.35 6.83L46.35 6.83Q47.21 6.83 47.98 7.15L47.98 7.15L47.98 7.15Q48.76 7.46 49.18 8.12L49.18 8.12L47.98 8.90L47.98 8.90Q47.74 8.53 47.26 8.33L47.26 8.33L47.26 8.33Q46.79 8.13 46.33 8.13L46.33 8.13L46.33 8.13Q45.79 8.13 45.38 8.32L45.38 8.32L45.38 8.32Q44.97 8.50 44.97 8.85L44.97 8.85L44.97 8.85Q44.97 9.17 45.35 9.35L45.35 9.35L45.35 9.35Q45.74 9.53 46.35 9.70L46.35 9.70L46.66 9.79L46.66 9.79Q47.39 9.98 47.94 10.20L47.94 10.20L47.94 10.20Q48.50 10.42 48.95 10.86L48.95 10.86L48.95 10.86Q49.41 11.31 49.41 12.00L49.41 12.00L49.41 12.00Q49.41 12.71 48.95 13.20L48.95 13.20L48.95 13.20Q48.50 13.69 47.77 13.92L47.77 13.92L47.77 13.92Q47.05 14.15 46.23 14.15L46.23 14.15ZM54.98 6.83L54.98 6.83Q56.48 6.83 57.27 7.82L57.27 7.82L57.27 7.82Q58.07 8.81 58.07 10.51L58.07 10.51L58.07 10.51Q58.07 10.81 58.06 10.95L58.06 10.95L53.24 10.95L53.24 10.95Q53.31 11.96 53.75 12.38L53.75 12.38L53.75 12.38Q54.19 12.81 54.95 12.81L54.95 12.81L54.95 12.81Q56 12.81 56.53 11.94L56.53 11.94L57.86 12.67L57.86 12.67Q57.40 13.41 56.62 13.78L56.62 13.78L56.62 13.78Q55.83 14.15 54.94 14.15L54.94 14.15L54.94 14.15Q54.01 14.15 53.26 13.76L53.26 13.76L53.26 13.76Q52.51 13.37 52.07 12.54L52.07 12.54L52.07 12.54Q51.63 11.72 51.63 10.49L51.63 10.49L51.63 10.49Q51.63 9.24 52.08 8.42L52.08 8.42L52.08 8.42Q52.53 7.60 53.28 7.22L53.28 7.22L53.28 7.22Q54.04 6.83 54.98 6.83L54.98 6.83ZM53.28 9.74L56.48 9.74L56.48 9.74Q56.41 8.96 56.03 8.56L56.03 8.56L56.03 8.56Q55.66 8.16 54.95 8.16L54.95 8.16L54.95 8.16Q54.28 8.16 53.84 8.53L53.84 8.53L53.84 8.53Q53.41 8.89 53.28 9.74L53.28 9.74Z"></path></g><!----><g data-v-423bf9ae="" id="030ccf2b-1013-4a28-bd96-15585bdd73cf" transform="matrix(2.8125,0,0,2.8125,0,0)" stroke="none" fill="black"><path d="M16 32c8.837 0 16-7.163 16-16S24.837 0 16 0 0 7.163 0 16s7.163 16 16 16zM14.817 6.421h2v8.886h8.887v2H14.817V6.421zm-5.959.437h2v14.283h14.283v2H8.858V6.858z"></path></g><!----></svg>